<?xml version="1.0" encoding="UTF-8" standalone="no"?>
<!-- Created with Inkscape (http://www.inkscape.org/) -->
<svg
   width="128mm"
   height="128mm"
   viewBox="0 0 210 297"
   version="1.1"
   id="svg1"
   inkscape:version="1.3.2 (091e20e, 2023-11-25, custom)"
   sodipodi:docname="favicon.svg"
   xmlns:inkscape="http://www.inkscape.org/namespaces/inkscape"
   xmlns:sodipodi="http://sodipodi.sourceforge.net/DTD/sodipodi-0.dtd"
   xmlns="http://www.w3.org/2000/svg"
   xmlns:svg="http://www.w3.org/2000/svg">

  <sodipodi:namedview
     id="namedview1"
     pagecolor="#ffffff"
     bordercolor="#000000"
     borderopacity="0.25"
     inkscape:showpageshadow="2"
     inkscape:pageopacity="0.0"
     inkscape:pagecheckerboard="0"
     inkscape:deskcolor="#d1d1d1"
     inkscape:document-units="mm"
     inkscape:zoom="0.7857724"
     inkscape:cx="-94.811169"
     inkscape:cy="154.62493"
     inkscape:window-width="1920"
     inkscape:window-height="1009"
     inkscape:window-x="-8"
     inkscape:window-y="-8"
     inkscape:window-maximized="1"
     inkscape:current-layer="layer1" />
  <defs
     id="defs1" />
  <g
     inkscape:label="Layer 1"
     inkscape:groupmode="layer"
     id="layer1">
    <rect
       style="fill:#ffffff;fill-opacity:0;stroke:none;stroke-width:2.32031"
       id="rect2"
       width="297"
       height="297"
       x="-43.5"
       y="0" />
    <path
       id="rect1"
       style="fill:#ec773c;stroke-width:0.407227"
       d="m 25.555905,75.962324 c -20.5672264,0 -37.125129,16.5579 -37.125129,37.125156 v 78.89058 c 0,20.56723 16.5579026,37.12511 37.125129,37.12511 H 183.33713 c 20.56719,0 37.1251,-16.55788 37.1251,-37.12511 v -78.89058 c 0,-20.567256 -16.55791,-37.125156 -37.1251,-37.125156 z M 56.300863,122.054 c 3.667123,0 6.862297,0.69923 9.586444,2.09953 2.724147,1.34845 4.84535,3.29328 6.364582,5.8346 1.519232,2.48945 2.279411,5.44641 2.279411,8.86941 h -9.901798 c 0,-2.64506 -0.733414,-4.66811 -2.200268,-6.06841 -1.414464,-1.45219 -3.456602,-2.17868 -6.128371,-2.17868 -2.671757,0 -4.74185,0.72649 -6.208704,2.17868 -1.466842,1.4003 -2.200256,3.42335 -2.200256,6.06841 v 24.7389 c 0,2.64506 0.733414,4.69298 2.200256,6.14514 1.466854,1.40033 3.536947,2.10074 6.208704,2.10074 2.671769,0 4.713907,-0.70041 6.128371,-2.10074 1.466854,-1.45216 2.200268,-3.50008 2.200268,-6.14514 H 74.5313 c 0,3.423 -0.760179,6.40483 -2.279411,8.94613 -1.519232,2.48947 -3.640435,4.4343 -6.364582,5.83462 -2.724147,1.34843 -5.919321,2.0228 -9.586444,2.0228 -3.719501,0 -6.941427,-0.67437 -9.665575,-2.0228 -2.724148,-1.40032 -4.846547,-3.34515 -6.365784,-5.83462 -1.466848,-2.5413 -2.200266,-5.52313 -2.200266,-8.94613 v -24.7389 c 0,-3.423 0.733418,-6.37996 2.200266,-8.86941 1.519237,-2.54132 3.641636,-4.48615 6.365784,-5.8346 2.724148,-1.4003 5.946074,-2.09953 9.665575,-2.09953 z m 89.817577,0.77697 h 11.63085 v 48.00056 h 12.0229 v 8.79026 h -36.77618 v -8.79026 h 14.93062 v -38.58678 l -15.00977,10.89101 v -10.89101 z m -43.29785,43.17678 c 2.20027,0 3.95537,0.67434 5.26505,2.02279 1.36207,1.34843 2.04319,3.08588 2.04319,5.21229 0,2.12643 -0.68112,3.86385 -2.04319,5.21227 -1.30968,1.29661 -3.06478,1.94489 -5.26505,1.94489 -2.20027,0 -3.982118,-0.64828 -5.344189,-1.94489 -1.309684,-1.34842 -1.964045,-3.08584 -1.964045,-5.21227 0,-2.12641 0.654361,-3.86386 1.964045,-5.21229 1.362071,-1.34845 3.143919,-2.02279 5.344189,-2.02279 z" />
  </g>
</svg>
